<svg width="104" height="41" viewBox="0 0 104 41" fill="none" xmlns="http://www.w3.org/2000/svg">
<path d="M33.2116 26.3964C32.877 26.3957 32.5429 26.3732 32.2113 26.3292C30.4188 26.0223 28.7961 25.0838 27.6379 23.6844C27.5584 23.5849 27.4996 23.4707 27.4647 23.3484C27.4359 23.222 27.4359 23.0907 27.4647 22.9644C27.4896 22.7528 27.5946 22.5588 27.7581 22.422C27.849 22.3359 27.9596 22.2733 28.0803 22.2396C28.202 22.2108 28.3288 22.2108 28.4506 22.2396C28.6765 22.2822 28.8767 22.4114 29.0084 22.5996C29.4301 23.1276 29.9472 23.572 30.5329 23.91C31.0937 24.2406 31.7121 24.4621 32.3556 24.5628C33.331 24.7102 34.3282 24.5907 35.241 24.2172C36.1821 23.8296 37.0105 23.2123 37.6504 22.422C38.3144 21.5914 38.7384 20.5955 38.8767 19.542C39.03 18.5246 38.919 17.4849 38.5544 16.5226C38.1898 15.5603 37.5838 14.7075 36.7944 14.046C36.0381 13.403 35.1139 12.9884 34.1301 12.8508C33.4864 12.7485 32.8277 12.7979 32.2065 12.9948L32.0045 13.062C31.341 13.3266 30.71 13.6665 30.1241 14.0748L24.4158 18.0828C24.3206 18.1503 24.2126 18.1976 24.0984 18.222C23.9856 18.2436 23.8697 18.2436 23.7569 18.222C23.6423 18.202 23.5328 18.1596 23.4347 18.0972C23.3373 18.0368 23.2538 17.9566 23.1894 17.862C23.0545 17.6764 22.9975 17.4456 23.0307 17.2188C23.0482 17.1044 23.0891 16.995 23.151 16.8972C23.2131 16.7984 23.295 16.7134 23.3914 16.6476L28.6045 12.9468C28.6045 12.9468 29.1335 12.5916 29.3643 12.4668C29.8681 12.1292 30.397 11.8308 30.9465 11.574C31.2944 11.4048 31.6545 11.262 32.0237 11.1468C32.7964 10.9583 33.5985 10.9224 34.385 11.0412C35.6806 11.2359 36.8972 11.7841 37.9004 12.6252C38.9133 13.4734 39.6901 14.5677 40.1559 15.8028C40.6322 17.067 40.7763 18.432 40.5743 19.7676C40.3724 21.1027 39.8273 22.3629 38.9921 23.4252C38.1772 24.4498 37.1148 25.2508 35.9047 25.7532C35.06 26.1477 34.1437 26.3666 33.2116 26.3964Z" fill="#F49D2B"/>
<path d="M21.6695 19.9449H21.5349C21.4173 19.9305 21.3042 19.8912 21.2031 19.8297C21.0974 19.7681 21.006 19.6849 20.9347 19.5857C20.8635 19.4864 20.814 19.3733 20.7895 19.2537C20.7655 19.1381 20.7655 19.0188 20.7895 18.9033C20.8031 18.7842 20.8424 18.6696 20.9049 18.5673C20.9633 18.4619 21.0437 18.3703 21.1405 18.2985C21.2352 18.2259 21.3438 18.1735 21.4597 18.1446C21.5755 18.1157 21.696 18.1109 21.8138 18.1305C22.0524 18.1707 22.2671 18.2993 22.4149 18.4905C22.5543 18.6847 22.6117 18.9258 22.5748 19.1619C22.538 19.398 22.4098 19.6102 22.2178 19.7529C22.0654 19.8829 21.8699 19.9514 21.6695 19.9449ZM21.6695 18.8169C21.6209 18.8026 21.5691 18.8026 21.5204 18.8169C21.4963 18.8353 21.4779 18.8603 21.4675 18.8889C21.4604 18.9172 21.4604 18.9469 21.4675 18.9753C21.455 19.0024 21.4486 19.0318 21.4486 19.0617C21.4486 19.0915 21.455 19.121 21.4675 19.1481C21.493 19.197 21.5359 19.2347 21.5878 19.2537C21.6439 19.273 21.7048 19.273 21.7609 19.2537C21.7823 19.2322 21.7993 19.2068 21.8108 19.1788C21.8224 19.1507 21.8283 19.1207 21.8282 19.0905C21.8286 19.0278 21.8044 18.9675 21.7609 18.9225C21.7212 18.8735 21.6646 18.841 21.6022 18.8313L21.6695 18.8169Z" fill="#F49D2B"/>
<path d="M7.2328 29.473C6.94458 29.4922 6.65539 29.4922 6.36717 29.473C5.06326 29.29 3.83784 28.7425 2.83249 27.8938C1.80649 27.0592 1.01591 25.9724 0.538552 24.7402C0.0393696 23.4734 -0.116549 22.0976 0.0864979 20.7514C0.260524 19.4012 0.799119 18.1236 1.64464 17.0554C2.46275 16.0217 3.53454 15.2165 4.75612 14.7178C5.91606 14.2275 7.18784 14.0616 8.43508 14.2378C10.2253 14.5395 11.8498 15.4667 13.0181 16.8538C13.1052 16.9446 13.1724 17.0525 13.2153 17.1706C13.2606 17.2875 13.2802 17.4127 13.2727 17.5377C13.2652 17.6628 13.2309 17.7848 13.172 17.8954C13.1156 18.0075 13.0352 18.1059 12.9364 18.1834C12.8439 18.2663 12.7337 18.327 12.6142 18.361C12.4438 18.412 12.2616 18.4069 12.0944 18.3464C11.9272 18.2859 11.784 18.1732 11.686 18.025C11.2643 17.4791 10.7337 17.0264 10.1279 16.6954C9.56022 16.3789 8.94193 16.1629 8.30042 16.057C7.32281 15.9179 6.3257 16.0456 5.41497 16.4266C3.97134 17.0355 2.82332 18.1835 2.21595 19.6256C1.60857 21.0676 1.58994 22.6895 2.16402 24.145C2.53553 25.0956 3.14084 25.9374 3.92415 26.593C4.68769 27.2201 5.60943 27.6253 6.58839 27.7642C7.23353 27.8617 7.89261 27.8058 8.51202 27.601H8.70919C9.37671 27.3408 10.0085 26.9973 10.5895 26.5786L16.2979 22.4986C16.3917 22.4307 16.4979 22.3817 16.6105 22.3546C16.7231 22.3306 16.8394 22.3306 16.952 22.3546C17.066 22.3738 17.1751 22.4152 17.273 22.4765C17.371 22.5378 17.4559 22.6178 17.5229 22.7118C17.5899 22.8059 17.6377 22.9122 17.6635 23.0247C17.6893 23.1372 17.6926 23.2536 17.6733 23.3674C17.6541 23.482 17.6116 23.5915 17.5483 23.689C17.4893 23.7887 17.4088 23.874 17.3127 23.9386L12.1381 27.4906L11.3927 27.9706C10.8861 28.3034 10.3556 28.5986 9.80567 28.8538C9.45749 29.0183 9.09739 29.1562 8.72843 29.2666C8.24047 29.3974 7.73802 29.4668 7.2328 29.473Z" fill="#EB6467"/>
<path d="M18.9089 22.3693H18.7742C18.5374 22.3279 18.3246 22.1995 18.1779 22.0093C18.0359 21.8121 17.974 21.5686 18.0048 21.3277C18.0291 21.1483 18.108 20.9808 18.2308 20.8477C18.3499 20.718 18.5046 20.6261 18.6756 20.5834C18.8466 20.5408 19.0264 20.5492 19.1926 20.6077C19.3621 20.6664 19.5097 20.7753 19.6158 20.9197C19.6879 21.0157 19.7402 21.125 19.7697 21.2413C19.7913 21.3571 19.7913 21.4759 19.7697 21.5917C19.7522 21.709 19.7113 21.8216 19.6495 21.9229C19.5877 22.026 19.506 22.1157 19.409 22.1869C19.264 22.2956 19.09 22.3591 18.9089 22.3693ZM18.9089 21.2365C18.8619 21.222 18.8116 21.222 18.7646 21.2365C18.7302 21.2596 18.7021 21.291 18.6829 21.3277C18.6648 21.3633 18.6565 21.403 18.6588 21.4429C18.6586 21.4816 18.6685 21.5196 18.6877 21.5533C18.7089 21.5888 18.7387 21.6185 18.7742 21.6397C18.8077 21.6601 18.8457 21.6716 18.8848 21.6733C18.9224 21.6854 18.9627 21.6854 19.0003 21.6733C19.0368 21.6559 19.0683 21.6295 19.0916 21.5965C19.1151 21.5639 19.13 21.5259 19.1349 21.4861C19.1397 21.4559 19.1397 21.4251 19.1349 21.3949C19.1241 21.3652 19.1113 21.3364 19.0964 21.3085C19.0769 21.2842 19.0523 21.2645 19.0243 21.2509C18.999 21.2328 18.9689 21.2227 18.9377 21.2221L18.9089 21.2365Z" fill="#EB6467"/>
<path d="M21.7606 40.3401C21.3146 40.3361 20.8695 40.3008 20.4285 40.2345C19.1045 40.0164 17.8597 39.4595 16.8154 38.6183C15.7712 37.7771 14.9631 36.6802 14.47 35.4345C14.0099 34.2632 13.872 32.9904 14.0709 31.7481C14.2282 30.8787 14.5444 30.0456 15.0038 29.2905C15.4631 28.4964 16.0742 27.8 16.8024 27.2409C16.9002 27.1578 17.0152 27.0971 17.1391 27.0633C17.2639 27.0265 17.3954 27.0183 17.5238 27.0393C17.735 27.076 17.9271 27.1845 18.0672 27.3465C18.148 27.4352 18.2058 27.5423 18.2355 27.6585C18.262 27.7754 18.262 27.8968 18.2355 28.0137C18.2208 28.1324 18.1779 28.246 18.1105 28.3449C18.0475 28.4462 17.962 28.5317 17.8604 28.5945C17.3148 29.0014 16.861 29.5181 16.5283 30.1113C16.1881 30.666 15.9564 31.28 15.8454 31.9209C15.6834 32.8898 15.7847 33.8844 16.1388 34.8009C16.4992 35.7495 17.1009 36.5882 17.8845 37.2345C18.6892 37.9305 19.6713 38.3907 20.7218 38.5641C21.7513 38.7416 22.8095 38.6456 23.79 38.2857C24.745 37.9397 25.5969 37.3585 26.2667 36.5961C26.9289 35.8461 27.3641 34.924 27.5219 33.9369C27.6313 33.2962 27.5902 32.639 27.4017 32.0169V31.8201C27.1611 31.1432 26.8381 30.4983 26.4398 29.9001L22.4531 24.1497C22.3889 24.0534 22.3432 23.9459 22.3184 23.8329C22.2944 23.7206 22.2944 23.6044 22.3184 23.4921C22.3377 23.3775 22.3802 23.268 22.4435 23.1705C22.5259 23.0565 22.6343 22.9637 22.7597 22.8996C22.8851 22.8356 23.024 22.8022 23.1648 22.8022C23.3057 22.8022 23.4446 22.8356 23.57 22.8996C23.6954 22.9637 23.8038 23.0565 23.8862 23.1705L27.4882 28.4937L27.9691 29.2521C28.293 29.7618 28.5791 30.2944 28.8251 30.8457C28.984 31.1941 29.1127 31.5554 29.2099 31.9257C29.3931 32.6969 29.416 33.4973 29.2772 34.2777C29.0715 35.5706 28.5029 36.7789 27.6373 37.7625C26.9058 38.5942 26.006 39.2617 24.9972 39.7209C23.9883 40.1801 22.8934 40.4206 21.7846 40.4265L21.7606 40.3401Z" fill="#2672B8"/>
<path d="M21.6697 22.3692H21.5207C21.2855 22.327 21.0755 22.1964 20.9339 22.0044C20.7941 21.8083 20.7371 21.5652 20.7752 21.3276C20.7898 21.2064 20.8273 21.0891 20.8859 20.982C20.9406 20.8728 21.0157 20.775 21.1071 20.694C21.2053 20.6184 21.3183 20.5644 21.4389 20.5356C21.5596 20.5122 21.6837 20.5122 21.8044 20.5356C21.9259 20.555 22.0421 20.5991 22.1458 20.6652C22.3516 20.8027 22.4963 21.0142 22.5498 21.2556C22.5765 21.4348 22.5554 21.6178 22.4887 21.7864C22.422 21.9549 22.3121 22.1029 22.1699 22.2156C22.0219 22.3146 21.8479 22.368 21.6697 22.3692ZM21.4437 21.4092C21.4366 21.4391 21.4366 21.4704 21.4437 21.5004C21.4471 21.5321 21.4581 21.5626 21.4757 21.5893C21.4932 21.616 21.5169 21.6382 21.5447 21.654C21.5708 21.6713 21.6003 21.6827 21.6313 21.6876C21.6619 21.6918 21.693 21.6897 21.7228 21.6815C21.7526 21.6732 21.7804 21.6589 21.8044 21.6396C21.8304 21.6222 21.8524 21.5995 21.869 21.5731C21.8856 21.5466 21.8963 21.5169 21.9006 21.486L21.4437 21.4092ZM21.4437 21.4092L21.8958 21.486C21.9033 21.4265 21.8878 21.3664 21.8525 21.318C21.8174 21.2698 21.7662 21.2358 21.7082 21.222C21.6812 21.2091 21.6516 21.2025 21.6216 21.2025C21.5917 21.2025 21.5621 21.2091 21.5351 21.222C21.5038 21.2418 21.4788 21.2701 21.4629 21.3036C21.452 21.3213 21.4446 21.341 21.4413 21.3616C21.438 21.3822 21.4388 21.4033 21.4437 21.4236V21.4092Z" fill="#2672B8"/>
<path d="M17.2591 17.6458H17.0427C16.9299 17.622 16.8224 17.5781 16.7253 17.5162C16.629 17.4521 16.5471 17.3688 16.4848 17.2714L12.8588 11.953C12.8588 11.953 12.5125 11.4202 12.3778 11.1946C12.0613 10.6873 11.7816 10.158 11.5411 9.61064C11.3831 9.2565 11.2481 8.89254 11.1371 8.52104C10.9626 7.74701 10.9413 6.9464 11.0746 6.16424C11.2808 4.87385 11.8532 3.66949 12.7241 2.69384C13.6015 1.68145 14.7254 0.911791 15.9875 0.459075C17.2496 0.00635857 18.6072 -0.114137 19.9295 0.109209C21.2519 0.332555 22.4942 0.892207 23.5368 1.73419C24.5794 2.57618 25.387 3.67209 25.8818 4.91624C26.3523 6.0882 26.4936 7.36606 26.2905 8.61224C26.1215 9.48425 25.7956 10.3185 25.3287 11.0746C24.8708 11.8698 24.2595 12.5664 23.5301 13.1242C23.4301 13.2018 23.3157 13.2589 23.1935 13.2922C23.0301 13.3293 22.8598 13.3231 22.6995 13.2743C22.5393 13.2254 22.3946 13.1357 22.2798 13.0138C22.2054 12.9222 22.1513 12.8159 22.1211 12.7018C22.0948 12.5849 22.0948 12.4636 22.1211 12.3466C22.1397 12.2281 22.184 12.1151 22.2509 12.0154C22.3139 11.9141 22.3994 11.8287 22.501 11.7658C23.0406 11.3525 23.4932 10.8371 23.8331 10.249C24.1722 9.69285 24.4069 9.07963 24.5256 8.43944C24.6898 7.4706 24.5885 6.47547 24.2323 5.55944C23.8661 4.60976 23.2657 3.76773 22.4866 3.11144C21.6765 2.41496 20.6898 1.9549 19.6348 1.78184C18.619 1.60749 17.5754 1.69695 16.6043 2.04161C15.6332 2.38627 14.7673 2.97454 14.0899 3.74984C13.4311 4.50326 12.9978 5.42639 12.8395 6.41384C12.7253 7.05394 12.7648 7.71197 12.9549 8.33384L13.0223 8.54504C13.2613 9.22261 13.5844 9.86764 13.9841 10.465L17.9804 16.249C18.0477 16.3419 18.0936 16.4485 18.1151 16.561C18.1391 16.6734 18.1391 16.7895 18.1151 16.9018C18.0959 17.0164 18.0533 17.1259 17.9901 17.2234C17.9296 17.322 17.8494 17.407 17.7544 17.473C17.6093 17.5768 17.4373 17.6367 17.2591 17.6458Z" fill="#3BAB4A"/>
<path d="M18.9087 19.9739H18.75C18.6324 19.954 18.5197 19.9116 18.4182 19.8491C18.3198 19.7846 18.2335 19.7034 18.1633 19.6091C18.0964 19.5119 18.0491 19.4027 18.0238 19.2875C17.9999 19.1719 17.9999 19.0527 18.0238 18.9371C18.051 18.7586 18.1295 18.5919 18.2499 18.4571C18.379 18.3207 18.5468 18.2269 18.7308 18.1883C18.9075 18.1498 19.0917 18.1649 19.2598 18.2315C19.427 18.2971 19.5698 18.4128 19.6686 18.5627C19.741 18.6561 19.7919 18.7642 19.8176 18.8795C19.8417 18.9951 19.8417 19.1143 19.8176 19.2299C19.7725 19.4685 19.6385 19.6812 19.4425 19.8251C19.2844 19.929 19.0978 19.981 18.9087 19.9739ZM18.6683 19.0139C18.6539 19.0755 18.6539 19.1395 18.6683 19.2011C18.7121 19.245 18.7669 19.2765 18.827 19.2923C18.8851 19.2929 18.9415 19.2724 18.9857 19.2347C19.0288 19.1997 19.0579 19.1502 19.0674 19.0955C19.0775 19.0394 19.0673 18.9816 19.0386 18.9323C19.0084 18.8835 18.9627 18.8463 18.9087 18.8267C18.8786 18.8199 18.8474 18.8199 18.8173 18.8267C18.7857 18.8195 18.7528 18.8195 18.7212 18.8267C18.6845 18.8874 18.6662 18.9574 18.6683 19.0283V19.0139Z" fill="#3BAB4A"/>
<path d="M60.892 26.7562L61.1709 26.5306C61.2671 26.4457 61.3802 26.3819 61.5028 26.3434C61.6117 26.305 61.7305 26.305 61.8394 26.3434C61.9847 26.4102 62.1081 26.5167 62.1953 26.6506L62.782 27.4762L63.1427 27.9946C63.2485 28.129 63.3158 28.2346 63.3687 28.2874C63.4251 28.3864 63.4749 28.4891 63.5178 28.5946C63.5514 28.7025 63.5514 28.818 63.5178 28.9258C63.4843 29.0704 63.4203 29.2062 63.3302 29.3242C63.191 29.504 63.0294 29.6653 62.8493 29.8042C62.339 30.2256 61.8008 30.6121 61.2383 30.961C60.6782 31.3109 60.0893 31.6128 59.4781 31.8634C58.8546 32.1122 58.2111 32.3081 57.5545 32.449C55.8111 32.7832 54.0132 32.701 52.3078 32.209C51.3117 31.9197 50.3602 31.4949 49.48 30.9466C48.5992 30.3993 47.7912 29.7429 47.0755 28.993C46.333 28.2369 45.6868 27.3921 45.1519 26.4778C44.6173 25.5507 44.2051 24.5585 43.9255 23.5258C43.3582 21.3753 43.3582 19.1148 43.9255 16.9642C44.4846 14.9124 45.5569 13.0361 47.0418 11.5114C47.7563 10.7602 48.5644 10.1036 49.4464 9.55784C50.3243 9.00438 51.2764 8.57774 52.2741 8.29064C53.2799 7.98735 54.3253 7.83528 55.376 7.83944C56.0527 7.83908 56.7278 7.90662 57.391 8.04104C58.0455 8.17088 58.6888 8.35225 59.3146 8.58344C59.9219 8.81261 60.5104 9.08865 61.0748 9.40904C61.587 9.70538 62.07 10.0493 62.5175 10.4362L62.8108 10.6858C62.9268 10.775 63.0261 10.8839 63.1042 11.0074C63.1851 11.1279 63.2407 11.2634 63.2677 11.4058C63.2798 11.5623 63.2464 11.719 63.1715 11.857L61.8394 13.681C61.5316 14.1082 61.1613 14.0938 60.7622 13.681C60.4236 13.3225 60.048 13.0007 59.6417 12.721C59.2211 12.4333 58.7752 12.1843 58.3095 11.977C57.8249 11.7768 57.3247 11.6163 56.8139 11.497C56.3115 11.3867 55.799 11.3287 55.2846 11.3242C54.2197 11.323 53.1692 11.5696 52.2164 12.0442C51.2137 12.5086 50.3093 13.1603 49.5522 13.9642C48.8087 14.8188 48.2211 15.7968 47.8161 16.8538C47.355 17.9342 47.1193 19.0971 47.1236 20.2714C47.1189 21.4444 47.3494 22.6064 47.8017 23.689C48.2309 24.7311 48.8451 25.6872 49.6147 26.5114C50.3732 27.3159 51.2793 27.9676 52.2837 28.4314C53.2463 28.9022 54.3041 29.1468 55.376 29.1466C55.9814 29.1553 56.5855 29.0892 57.1746 28.9498C57.6764 28.8147 58.1606 28.6214 58.6173 28.3738C59.0502 28.1676 59.4584 27.9132 59.834 27.6154C60.1931 27.3562 60.5458 27.0698 60.892 26.7562Z" fill="#415B7D"/>
<path d="M66.1006 27.4762C66.0834 27.3206 66.0429 27.1685 65.9804 27.025C65.9519 26.9339 65.9494 26.8367 65.9732 26.7443C65.997 26.6519 66.0461 26.5679 66.115 26.5018C66.1996 26.425 66.2932 26.3589 66.3939 26.305L68.1156 25.4938C68.2194 25.4219 68.3427 25.3834 68.4691 25.3834C68.5954 25.3834 68.7187 25.4219 68.8225 25.4938C68.99 25.6578 69.1253 25.8515 69.2217 26.065C69.3935 26.5704 69.6856 27.0266 70.0729 27.3946C70.4504 27.76 70.8779 28.0703 71.3425 28.3162C71.7863 28.547 72.2561 28.7242 72.7419 28.8442C73.1321 28.9543 73.5342 29.0171 73.9394 29.0314C74.4503 29.0206 74.9578 28.9448 75.4495 28.8058C75.9985 28.6738 76.524 28.4585 77.0076 28.1674C77.4879 27.8811 77.905 27.5006 78.2339 27.049C78.5652 26.5686 78.7337 25.995 78.7148 25.4122C78.74 24.8255 78.571 24.247 78.2339 23.7658C77.9088 23.3402 77.4954 22.9899 77.022 22.7386C76.4873 22.4585 75.9227 22.2396 75.3389 22.0858L73.4874 21.6058C72.492 21.332 71.5256 20.9623 70.6019 20.5018C69.8078 20.1036 69.0756 19.5927 68.4282 18.985C67.8566 18.4246 67.4036 17.7554 67.0961 17.017C66.7685 16.2327 66.6048 15.3898 66.6152 14.5402C66.602 13.5941 66.7923 12.6562 67.173 11.7898C67.5348 10.9742 68.0659 10.2445 68.7312 9.64897C69.4374 9.05129 70.2544 8.5979 71.1357 8.31457C72.9131 7.7497 74.8098 7.67178 76.6277 8.08897C77.2589 8.25133 77.8586 8.51736 78.4022 8.87617C78.9439 9.24877 79.4297 9.69646 79.845 10.2058C80.3344 10.7632 80.7935 11.3464 81.2204 11.953C81.3494 12.1476 81.4317 12.3694 81.4608 12.601C81.4579 12.7096 81.4264 12.8155 81.3695 12.9082C81.3146 13.0014 81.2368 13.079 81.1434 13.1338L79.7007 14.1706C79.417 14.3338 79.2198 14.3866 79.0707 14.305C78.8814 14.1947 78.7175 14.0459 78.5898 13.8682L77.7771 12.8842C77.5016 12.5753 77.1937 12.2969 76.8585 12.0538C76.5075 11.8042 76.1219 11.6069 75.714 11.4682C75.2226 11.3145 74.7091 11.2432 74.1943 11.257C73.6775 11.2573 73.1626 11.3185 72.6602 11.4394C72.1831 11.5636 71.732 11.7716 71.3281 12.0538C70.9108 12.3318 70.5701 12.71 70.3374 13.1537C70.1046 13.5973 69.9872 14.0922 69.996 14.593C69.9948 15.0393 70.1496 15.4721 70.4336 15.817C70.7419 16.2097 71.1103 16.5515 71.5252 16.8298C71.9819 17.1301 72.4648 17.3888 72.968 17.6026C73.4676 17.8043 73.9801 17.9726 74.5021 18.1066C75.5784 18.3574 76.6271 18.7144 77.6328 19.1722C78.5058 19.559 79.3162 20.0734 80.0373 20.6986C80.6955 21.2738 81.2304 21.9758 81.6099 22.7626C81.9906 23.5969 82.1812 24.5051 82.1678 25.4218C82.1811 26.4399 81.9676 27.4482 81.5426 28.3738C81.1447 29.2391 80.5503 30 79.8065 30.5962C79.0216 31.2392 78.1158 31.719 77.1423 32.0074C76.0526 32.3437 74.9164 32.5057 73.7759 32.4874C72.9889 32.4792 72.2057 32.376 71.4435 32.1802C69.8262 31.7896 68.3636 30.9234 67.2452 29.6938C66.7244 29.0349 66.3357 28.2819 66.1006 27.4762Z" fill="#415B7D"/>
<path d="M84.7603 27.9561L86.3088 26.6217C86.4623 26.4998 86.6568 26.4413 86.8522 26.4585C87.0496 26.4748 87.2327 26.5679 87.362 26.7177C88.0131 27.4877 88.8313 28.0996 89.7545 28.5071C90.6777 28.9146 91.6817 29.107 92.6905 29.0697C95.5326 29.0697 97.3553 27.9273 97.3553 25.3593C97.3553 22.3257 95.2778 21.1833 90.9448 21.1833H90.5841C90.4034 21.1823 90.2304 21.1098 90.1032 20.9817C89.9748 20.8543 89.9007 20.6824 89.8964 20.5017V18.5817C89.9014 18.3899 89.9809 18.2074 90.1183 18.0731C90.2556 17.9387 90.4399 17.8629 90.6322 17.8617H91.0457C95.5615 17.8617 96.7493 16.4505 96.7493 14.3337C96.7493 12.4137 95.6577 11.3145 92.7482 11.3145C90.897 11.3275 89.1184 12.0352 87.766 13.2969C87.7235 13.3413 87.6729 13.3772 87.6169 13.4025C87.5026 13.4479 87.3753 13.4479 87.261 13.4025C87.205 13.3772 87.1544 13.3413 87.1119 13.2969L85.448 11.4345C85.3735 11.3476 85.3325 11.2369 85.3325 11.1225C85.3325 11.0081 85.3735 10.8975 85.448 10.8105C87.5027 8.80455 90.2683 7.69006 93.1425 7.70973C98.0863 7.70973 100.553 10.2105 100.553 13.7913C100.623 15.0784 100.237 16.3491 99.4625 17.3804C98.6878 18.4117 97.574 19.1378 96.3165 19.4313C97.7684 19.6178 99.0906 20.3607 100.003 21.503C100.916 22.6452 101.348 24.097 101.207 25.5513C101.207 29.8713 97.8747 32.6793 92.7434 32.6793C91.2064 32.7352 89.6772 32.4369 88.2744 31.8075C86.8717 31.1782 85.633 30.2348 84.6545 29.0505C84.5888 28.9697 84.5398 28.8767 84.5102 28.7769C84.4888 28.6756 84.4888 28.571 84.5102 28.4697C84.5194 28.3661 84.5523 28.2659 84.6064 28.1769C84.6444 28.095 84.6965 28.0202 84.7603 27.9561Z" fill="#415B7D"/>
<path d="M102.967 7.98847C103.098 8.06206 103.213 8.16108 103.305 8.27967C103.397 8.39827 103.464 8.53405 103.503 8.679C103.541 8.82395 103.55 8.97513 103.53 9.12364C103.509 9.27215 103.458 9.41497 103.381 9.54367C103.284 9.71702 103.141 9.85998 102.967 9.95647C102.792 10.0676 102.589 10.129 102.381 10.1341C102.174 10.1375 101.971 10.0826 101.794 9.97567C101.619 9.87822 101.472 9.73569 101.371 9.56287C101.274 9.38776 101.223 9.19147 101.222 8.99167C101.222 8.79172 101.273 8.59513 101.371 8.42047C101.478 8.25198 101.623 8.11065 101.794 8.00767C101.975 7.9114 102.176 7.86034 102.381 7.85887C102.584 7.85324 102.785 7.89776 102.967 7.98847ZM102.9 9.85087C103.049 9.76282 103.173 9.63905 103.261 9.49087C103.355 9.33404 103.406 9.15531 103.41 8.97247C103.409 8.79227 103.357 8.61595 103.261 8.46367C103.179 8.31166 103.053 8.18783 102.9 8.10847C102.742 8.01841 102.563 7.97202 102.381 7.97407C102.198 7.97008 102.019 8.01661 101.861 8.10847C101.703 8.18466 101.574 8.30906 101.491 8.46367C101.397 8.61638 101.35 8.79335 101.356 8.97247C101.352 9.15438 101.399 9.33382 101.491 9.49087C101.584 9.63838 101.711 9.76175 101.861 9.85087C102.019 9.94226 102.199 9.98721 102.381 9.98047C102.562 9.98399 102.741 9.93926 102.9 9.85087ZM102.741 9.22207L103.006 9.64927H102.794L102.53 9.22207C102.507 9.17938 102.474 9.14306 102.434 9.11647H102.087V9.67807H101.9V8.34847H102.462C102.586 8.34427 102.708 8.38143 102.809 8.45407C102.848 8.48802 102.88 8.53075 102.9 8.57887C102.919 8.62781 102.929 8.67992 102.929 8.73247C102.929 8.82606 102.894 8.91639 102.833 8.98687C102.759 9.0542 102.667 9.09915 102.568 9.11647C102.636 9.13148 102.697 9.16864 102.741 9.22207ZM102.434 8.94367C102.515 8.94878 102.595 8.92496 102.66 8.87647C102.687 8.8586 102.708 8.83371 102.722 8.80447C102.729 8.77122 102.729 8.73692 102.722 8.70367C102.731 8.67071 102.731 8.63584 102.722 8.60287C102.708 8.56978 102.685 8.54145 102.655 8.52127C102.582 8.49266 102.501 8.49266 102.429 8.52127H102.083V9.00127L102.434 8.94367Z" fill="#415B7D"/>
</svg>
